<svg xmlns="http://www.w3.org/2000/svg" width="77.846" height="79.355" viewBox="0 0 77.846 79.355">
  <g id="no_data" data-name="no data" transform="translate(-9.077 -8.322)">
    <path id="Path_1639" data-name="Path 1639" d="M48.116,46.831a1.124,1.124,0,1,1-1.125-1.125,1.126,1.126,0,0,1,1.125,1.125Zm-7.96-23.953a9.136,9.136,0,1,1,9.819,14.695,2.689,2.689,0,0,0-1.859,2.607v2.069a1.124,1.124,0,1,1-2.249,0V40.18a4.942,4.942,0,0,1,3.374-4.731,6.888,6.888,0,1,0-7.4-11.08,1.124,1.124,0,1,1-1.684-1.49Zm-5.5-12.869A1.124,1.124,0,0,1,36.6,8.886l2.6,4.5a1.125,1.125,0,0,1-1.949,1.124l-2.6-4.5ZM25.6,17.941a1.123,1.123,0,0,1,1.536-.411l4.5,2.6a1.124,1.124,0,1,1-1.125,1.946l-4.5-2.6a1.124,1.124,0,0,1-.411-1.535ZM22.137,30.872a1.124,1.124,0,0,1,1.124-1.125h5.192a1.124,1.124,0,1,1,0,2.249H23.26a1.123,1.123,0,0,1-1.124-1.124Zm45.41-1.125h5.194a1.124,1.124,0,0,1,0,2.249H67.546a1.124,1.124,0,0,1,0-2.249ZM63.955,21.66a1.121,1.121,0,0,1,.411-1.535l4.5-2.6a1.124,1.124,0,0,1,1.124,1.946l-4.5,2.6a1.122,1.122,0,0,1-1.535-.411ZM56.8,13.382l2.6-4.5a1.124,1.124,0,1,1,1.946,1.124l-2.6,4.5A1.124,1.124,0,1,1,56.8,13.382Zm1.65,52.346L50.109,53.316H75.128L83.66,65.728ZM74.593,84.72V67.978H57.851a1.125,1.125,0,0,1-.933-.5l-7.793-11.6V85.429H73.886a.718.718,0,0,0,.708-.709Zm-52.479.709a.719.719,0,0,1-.709-.709V67.978H38.15a1.128,1.128,0,0,0,.934-.5l7.793-11.6V85.429H22.114ZM20.872,53.316,12.339,65.728h25.21L45.89,53.316H20.872Zm65.853,12.9L76.645,51.554a1.121,1.121,0,0,0-.926-.487H20.28a1.124,1.124,0,0,0-.926.487L9.276,66.216a1.126,1.126,0,0,0,.925,1.762h8.956V84.72a2.961,2.961,0,0,0,2.958,2.958H73.886a2.96,2.96,0,0,0,2.956-2.958V67.978H85.8A1.128,1.128,0,0,0,86.725,66.216Z" fill="#32b588" fill-rule="evenodd"/>
  </g>
</svg>
